<?xml version="1.0" standalone="no"?>
<!DOCTYPE svg PUBLIC "-//W3C//DTD SVG 20010904//EN"
 "http://www.w3.org/TR/2001/REC-SVG-20010904/DTD/svg10.dtd">
<svg version="1.0" xmlns="http://www.w3.org/2000/svg"
 width="512.000000pt" height="512.000000pt" viewBox="0 0 512.000000 512.000000"
 preserveAspectRatio="xMidYMid meet">
<metadata>
Created by potrace 1.14, written by Peter Selinger 2001-2017
</metadata>
<g transform="translate(0.000000,512.000000) scale(0.100000,-0.100000)"
fill="#000000" stroke="none">
<path d="M2878 3978 l-3 -123 -292 -3 -293 -2 0 -160 0 -160 295 0 295 0 0
-100 0 -100 -375 0 -375 0 0 -165 0 -165 250 0 c138 0 250 -1 250 -2 -1 -12
-63 -201 -90 -270 l-33 -88 -169 0 c-156 0 -169 -1 -164 -17 2 -10 12 -87 22
-170 16 -142 19 -153 38 -153 38 0 806 40 1066 55 140 8 272 16 294 17 43 3
51 -5 97 -95 16 -32 33 -56 37 -54 149 83 292 172 292 181 0 14 -90 161 -148
240 -58 81 -141 184 -216 271 l-70 80 212 3 212 2 0 165 0 165 -375 0 -375 0
0 100 0 100 300 0 300 0 0 160 0 160 -300 0 -300 0 0 125 0 125 -190 0 -189 0
-3 -122z m495 -1036 c-57 -31 -103 -59 -103 -62 0 -3 34 -47 76 -98 42 -51 73
-96 69 -100 -8 -8 -514 -26 -522 -19 -3 3 17 54 45 114 28 59 62 134 76 166
l25 57 218 0 218 0 -102 -58z"/>
<path d="M890 3780 l0 -180 170 0 c199 0 180 22 150 -173 -78 -503 -209 -936
-359 -1182 -39 -63 -42 -72 -30 -91 58 -92 115 -192 151 -266 24 -48 46 -87
51 -87 4 -1 24 25 45 56 l37 58 3 -418 2 -417 170 0 170 0 0 120 0 120 280 0
280 0 0 -160 0 -160 1015 0 1015 0 0 165 0 165 -75 0 -75 0 0 420 0 420 -825
0 -825 0 0 -420 0 -420 -95 0 -95 0 -2 783 -3 782 -283 3 c-263 2 -283 4 -278
20 19 69 51 229 81 407 19 116 37 225 40 243 l6 32 260 0 259 0 -2 178 -3 177
-617 3 -618 2 0 -180z m808 -1672 l-3 -433 -122 -3 -123 -3 0 436 0 435 125 0
125 0 -2 -432z m1012 -513 l0 -265 -85 0 -85 0 0 258 c0 142 3 262 7 265 3 4
42 7 85 7 l78 0 0 -265z m425 0 l0 -260 -87 -3 -88 -3 0 259 c0 142 3 262 7
266 4 4 43 5 88 4 l80 -3 0 -260z m430 0 l0 -260 -82 -3 -83 -3 0 266 0 266
83 -3 82 -3 0 -260z"/>
</g>
</svg>
