<?xml version="1.0" standalone="no"?>
<!DOCTYPE svg PUBLIC "-//W3C//DTD SVG 20010904//EN"
 "http://www.w3.org/TR/2001/REC-SVG-20010904/DTD/svg10.dtd">
<svg version="1.0" xmlns="http://www.w3.org/2000/svg"
 width="560.000000pt" height="560.000000pt" viewBox="0 0 560.000000 560.000000"
 preserveAspectRatio="xMidYMid meet">
<metadata>
Created by potrace 1.14, written by Peter Selinger 2001-2017
</metadata>
<g transform="translate(0.000000,560.000000) scale(0.100000,-0.100000)"
fill="#000000" stroke="none">
<path d="M3140 4355 l0 -135 -320 0 -320 0 0 -180 0 -180 320 0 320 0 0 -110
0 -110 -410 0 -410 0 0 -180 0 -180 279 0 279 0 -33 -102 c-18 -57 -48 -145
-66 -195 l-34 -93 -185 0 -186 0 24 -182 c13 -100 25 -185 28 -187 7 -8 1348
58 1500 74 l52 5 42 -83 c24 -45 44 -84 46 -86 6 -7 333 184 334 195 1 41
-246 388 -398 559 l-80 90 234 3 234 2 0 180 0 180 -415 0 -415 0 0 110 0 110
330 0 330 0 0 180 0 180 -330 0 -330 0 0 135 0 135 -210 0 -210 0 0 -135z
m648 -1080 c-2 -3 -53 -31 -111 -63 l-107 -59 90 -110 90 -111 -68 -6 c-116
-10 -522 -19 -522 -11 0 4 27 64 59 133 32 70 69 151 81 180 l22 52 236 0
c129 0 233 -2 230 -5z"/>
<path d="M970 4130 l0 -200 191 0 191 0 -6 -27 c-3 -16 -10 -64 -16 -108 -78
-569 -247 -1113 -433 -1396 -16 -24 -16 -27 9 -60 38 -51 102 -161 161 -278
l52 -104 43 68 43 67 3 -456 2 -456 190 0 190 0 0 130 0 130 300 0 300 0 0
-175 0 -175 1115 0 1115 0 0 185 0 185 -80 0 -80 0 0 455 0 455 -910 0 -910 0
0 -455 0 -455 -100 0 -100 0 0 855 0 855 -311 0 -311 0 6 23 c17 63 77 372
100 517 15 91 29 177 32 193 l6 27 284 0 284 0 0 200 0 200 -680 0 -680 0 0
-200z m880 -1825 l0 -475 -130 0 -130 0 0 475 0 475 130 0 130 0 0 -475z
m1110 -560 l0 -285 -90 0 -90 0 0 285 0 285 90 0 90 0 0 -285z m470 0 l0 -285
-95 0 -95 0 0 285 0 285 95 0 95 0 0 -285z m470 0 l0 -285 -90 0 -90 0 0 285
0 285 90 0 90 0 0 -285z"/>
</g>
</svg>
